<mxfile host="app.diagrams.net" modified="2024-05-12T21:14:29.625Z" agent="Mozilla/5.0 (Windows NT 10.0; Win64; x64) AppleWebKit/537.36 (KHTML, like Gecko) Chrome/124.0.0.0 Safari/537.36 Edg/124.0.0.0" version="24.4.0" etag="WMdD1b1uxZCpINNJe-LN" type="github">
  <diagram name="Page-1" id="ww3uf0TnqHbncJSXvy0J">
    <mxGraphModel>
      <root>
        <mxCell id="0" />
        <mxCell id="1" parent="0" />
      </root>
    </mxGraphModel>
  </diagram>
</mxfile>
